<svg id="ic_dialog_close" xmlns="http://www.w3.org/2000/svg" width="40" height="40.001" viewBox="0 0 40 40.001">
  <g id="Canvas" fill="#ea5f63" stroke="#6e6e6e" stroke-width="1" opacity="0">
    <rect width="40" height="40" stroke="none"/>
    <rect x="0.5" y="0.5" width="39" height="39" fill="none"/>
  </g>
  <circle id="bg" cx="15" cy="15" r="15" transform="matrix(1, -0.017, 0.017, 1, 5, 5.525)" fill="#fff"/>
  <path id="color" d="M35.142,6.858a20,20,0,1,0,0,28.284h0a20,20,0,0,0,0-28.284ZM31.784,30.02l-1.767,1.764a1.5,1.5,0,0,1-2.121,0l0,0L21,24.889l-6.9,6.895a1.5,1.5,0,0,1-2.121,0l0,0-1.761-1.769a1.5,1.5,0,0,1,0-2.121l0,0L17.111,21l-6.892-6.9a1.5,1.5,0,0,1,0-2.121l0,0,1.767-1.767a1.5,1.5,0,0,1,2.121,0l0,0L21,17.11l6.895-6.894a1.5,1.5,0,0,1,2.121,0l0,0,1.767,1.767a1.5,1.5,0,0,1,0,2.121l0,0L24.889,21,31.784,27.9a1.5,1.5,0,0,1,0,2.121Z" transform="translate(-1 -0.999)" fill="#ea5f63"/>
</svg>
