<svg id="ic_system_alert_import_" data-name="ic_system_alert_import!" xmlns="http://www.w3.org/2000/svg" width="124" height="112" viewBox="0 0 124 112">
  <path id="Path_4474" data-name="Path 4474" d="M487.026,293.735a11.383,11.383,0,0,1-9.811,5.614H379.86a11.379,11.379,0,0,1-9.809-5.613,11.168,11.168,0,0,1,0-11.229l48.675-83.546a11.381,11.381,0,0,1,19.621,0l48.675,83.548A11.168,11.168,0,0,1,487.026,293.735Z" transform="translate(-365.012 -189.822)" fill="#fec901"/>
  <path id="Path_4475" data-name="Path 4475" d="M470.857,298.2h-94.93a14.566,14.566,0,0,1-12.592-7.315,14.753,14.753,0,0,1,0-14.639L410.8,193.517a14.5,14.5,0,0,1,25.186,0l47.464,82.733a14.754,14.754,0,0,1,0,14.631v0A14.571,14.571,0,0,1,470.857,298.2ZM423.392,193.236a7.559,7.559,0,0,0-6.538,3.8L369.39,279.766a7.659,7.659,0,0,0,0,7.6,7.564,7.564,0,0,0,6.538,3.8h94.93a7.57,7.57,0,0,0,6.54-3.8h0a7.662,7.662,0,0,0,0-7.6l-47.464-82.734A7.566,7.566,0,0,0,423.392,193.236Z" transform="translate(-361.392 -186.201)" fill="#1d1d1b"/>
  <circle id="Ellipse_192" data-name="Ellipse 192" cx="8" cy="8" r="8" transform="translate(54.682 80.634)" fill="#1d1d1b"/>
  <path id="Path_4476" data-name="Path 4476" d="M480.1,289.858h0a5.35,5.35,0,0,1-5.29-5.028l-2.688-38.219a8.1,8.1,0,0,1,7.979-8.753h0a8.1,8.1,0,0,1,7.979,8.753l-2.688,38.219A5.351,5.351,0,0,1,480.1,289.858Z" transform="translate(-417.474 -212.37)" fill="#1d1d1b"/>
</svg>
